{"title":"A.Perfect.Getaway.2009.SWESUB.DVDRip.XviD.AC3.(5.1).-Zen_Bud","uid":5582892,"size":1471839206,"categoryP":"video","categoryS":"movies","magnet":"?xt=urn:btih:10eb4ce1bda70b71f87a596134dc117534297381&amp;dn=A.Perfect.Getaway.2009.SWESUB.DVDRip.XviD.AC3.%285.1%29.-Zen_Bud&amp;tr=udp%3A%2F%2Ftracker.openbittorrent.com%3A80&amp;tr=udp%3A%2F%2Fopen.demonii.com%3A1337&amp;tr=udp%3A%2F%2Ftracker.coppersurfer.tk%3A6969&amp;tr=udp%3A%2F%2Fexodus.desync.com%3A6969","seeders":0,"leechers":1,"uploader":"Zen_Bud","files":-1,"time":1274600385,"description":"General\nComplete name                    : A.Perfect.Getaway.avi\nFormat                           : AVI\nFile size                        : 1.37 GiB\nDuration                         : 1h 47mn\nOverall bit rate                 : 1 823 Kbps\n\nVideo\nID                               : 0\nFormat                           : MPEG-4 Visual\nCodec ID/Hint                    : XviD\nDuration                         : 1h 47mn\nBit rate                         : 1 364 Kbps\nWidth                            : 720 pixels\nHeight                           : 496 pixels\nDisplay aspect ratio             : 2.065\nChroma subsampling               : 4:2:0\nBit depth                        : 8 bits\nScan type                        : Progressive\nBits/(Pixel*Frame)               : 0.153\nStream size                      : 1.03 GiB (75%)\nWriting library                  : XviD 1.1.2 (UTC 2006-11-01)\n\nAudio\nID                               : 1\nFormat                           : AC-3\nDuration                         : 1h 47mn\nBit rate                         : 448 Kbps\nChannel(s)                       : 6 channels\nChannel positions                : Front: L C R, Side: L R, LFE\nSampling rate                    : 48.0 KHz\nStream size                      : 345 MiB (25%)\n\n\n","torrent":{"xt":"urn:btih:10eb4ce1bda70b71f87a596134dc117534297381","amp;dn":"A.Perfect.Getaway.2009.SWESUB.DVDRip.XviD.AC3.%285.1%29.-Zen_Bud","amp;tr":["udp%3A%2F%2Ftracker.openbittorrent.com%3A80","udp%3A%2F%2Fopen.demonii.com%3A1337","udp%3A%2F%2Ftracker.coppersurfer.tk%3A6969","udp%3A%2F%2Fexodus.desync.com%3A6969"],"infoHash":"10eb4ce1bda70b71f87a596134dc117534297381","infoHashBuffer":{"type":"Buffer","data":[16,235,76,225,189,167,11,113,248,122,89,97,52,220,17,117,52,41,115,129]},"announce":[],"urlList":[]}}